# xmcd
#
# Track frame offsets:
#	187
#	16527
#	31452
#	43435
#	58175
#	74670
#	92500
#	104430
#	116720
#	132825
#
# Disc length: 1966
#
# Revision: 3
# Processed by: cddbd v1.5.1PL0 Copyright (c) Steve Scherf et al.
# Submitted via: CDValet v3.31 - Copyright (c) 1997 Greg Leichner
# Normalized: r1:DSETVAR1,TDELIM( - ),TSWAP
#
DISCID=8c07ac0a
DTITLE=Various Artist - Super Hits
DYEAR=1900
DGENRE=
TTITLE0=Alabama - The Closer You Get
TTITLE1=Alabama - Love In The First Degree
TTITLE2=Waylon Jennings - Clyde
TTITLE3=Waylon Jennings - Luckenbach, Texas (Back To The Basics Of Love)
TTITLE4=Ronnie Milsap - Any Day Now
TTITLE5=Ronnie Milsap - What A Difference You've Made In My Life
TTITLE6=Dolly Parton - Joline
TTITLE7=Dolly Parton - 9 To 5
TTITLE8=Keith Whitley - I'm No Stranger To The Wind
TTITLE9=Keith Whitley - I Wonder Do You Think Of Me
EXTD=
EXTT0=
EXTT1=
EXTT2=
EXTT3=
EXTT4=
EXTT5=
EXTT6=
EXTT7=
EXTT8=
EXTT9=
PLAYORDER=
